<svg width="80" height="80" viewBox="0 0 80 80" fill="none" xmlns="http://www.w3.org/2000/svg">
<path d="M20.8662 3.00049H21.793C24.9878 3.00049 27.8122 4.99022 28.9678 7.9458L32.9844 18.2202C33.6567 19.9389 33.8207 21.8154 33.4561 23.6245C33.0915 25.4332 32.2138 27.0985 30.9287 28.4224L25.9521 33.5161L25.7461 33.7271L25.8311 34.0093C28.7175 43.6001 36.0878 51.1489 45.3848 54.1235L45.6787 54.2173L45.8945 53.9966L50.8125 48.9634L50.8135 48.9614C52.0966 47.6383 53.7468 46.7297 55.5508 46.3521C57.355 45.9745 59.2314 46.1456 60.9375 46.8433L70.9775 50.9546C73.924 52.1605 75.8065 55.0555 75.8066 58.2183V59.1665C75.8066 69.8735 67.3093 78.6663 56.6904 78.6665H55.877C26.5152 78.6665 2.712 54.8063 1.77832 25.1431L1.77734 25.1177L1.77441 25.0933L1.75586 24.9077C1.75184 24.8456 1.74992 24.7834 1.75 24.7212V22.5005C1.75 11.7935 10.2474 3.00074 20.8662 3.00049ZM20.8662 8.6665C13.5002 8.66676 7.41699 14.7981 7.41699 22.5005V24.4409L7.4209 24.4722C7.42946 24.5406 7.43359 24.6093 7.43359 24.6772V24.6899C8.13707 51.5496 29.6161 73.0003 55.8779 73.0005H56.6914C64.0577 73.0005 70.1416 66.8691 70.1416 59.1665V58.2183C70.1472 57.7933 70.0276 57.3757 69.7979 57.0181C69.5665 56.6582 69.2339 56.3747 68.8418 56.2036L68.8311 56.1987L58.793 52.0894C58.1298 51.8181 57.4 51.7526 56.6992 51.9019C56.0002 52.0508 55.3617 52.4064 54.8672 52.9224L49.8574 58.0493C48.3846 59.5576 46.1321 60.2891 43.9316 59.604C32.8197 56.1512 24.056 47.2831 20.5303 36.0435L20.3662 35.5063C19.7234 33.3385 20.3997 31.0933 21.8682 29.5894L21.8672 29.5884L26.8779 24.4614L26.8809 24.4575C27.4027 23.9131 27.7579 23.2305 27.9043 22.4907C28.0323 21.8436 27.9961 21.1763 27.8008 20.5493L27.707 20.2827L23.6904 10.0083C23.5482 9.62214 23.2931 9.28757 22.958 9.04834C22.6195 8.80671 22.2157 8.67313 21.7998 8.6665H20.8662ZM44.4805 1.3335H47.8633C52.1165 1.3335 55.455 4.8438 55.4551 9.03662C55.4551 12.0615 53.7057 14.8415 50.9287 16.0854L43.6787 19.3306L43.6729 19.3335C43.3923 19.4637 43.1433 19.6532 42.9434 19.8892C42.7434 20.1252 42.597 20.4025 42.5146 20.7007L42.3398 21.3335H52.6221C53.3734 21.3336 54.0937 21.6323 54.625 22.1636C55.1563 22.6948 55.455 23.4152 55.4551 24.1665C55.4551 24.9179 55.1564 25.6391 54.625 26.1704C54.0938 26.7016 53.3733 27.0004 52.6221 27.0005H39.5947C38.8435 27.0004 38.1231 26.7016 37.5918 26.1704C37.0604 25.6391 36.7617 24.9179 36.7617 24.1665V21.3247C36.7619 18.25 38.5408 15.4236 41.3643 14.1597L48.6143 10.9136L48.627 10.9077C48.9796 10.7382 49.2766 10.4709 49.4824 10.1382C49.6625 9.84692 49.766 9.51567 49.7852 9.17529L49.7881 9.02979C49.7844 7.83939 48.8561 7.00049 47.8633 7.00049H44.4688C44.0389 7.01018 43.6227 7.15334 43.2783 7.41064C42.9344 7.66758 42.6792 8.02543 42.5479 8.43408C42.4317 8.79242 42.2448 9.12422 41.999 9.40967C41.7533 9.69505 41.4533 9.92916 41.1162 10.0972C40.7792 10.2651 40.4119 10.3638 40.0361 10.3882C39.6602 10.4126 39.2828 10.3618 38.9268 10.2388C38.571 10.1158 38.2433 9.92334 37.9629 9.67236C37.6823 9.42118 37.4545 9.11608 37.293 8.77588C37.1315 8.43557 37.0386 8.06624 37.0215 7.68994C37.0043 7.31245 37.062 6.93681 37.1914 6.58447L37.1943 6.57471C38.2359 3.55861 41.0771 1.3335 44.4805 1.3335ZM70.0527 1.46143C70.8336 1.25793 71.658 1.29831 72.415 1.57764C73.1723 1.85715 73.8266 2.36261 74.2881 3.0249C74.7494 3.68707 74.9971 4.47472 74.9971 5.28174V16.3228L75.4854 16.3335C76.2256 16.3501 76.9305 16.6556 77.4482 17.1851C77.9657 17.7143 78.2557 18.4253 78.2559 19.1655C78.2559 19.9059 77.9658 20.6176 77.4482 21.147C76.9305 21.6764 76.2256 21.982 75.4854 21.9985L74.9971 22.0093V24.1655C74.997 24.9168 74.6981 25.6372 74.167 26.1685C73.6356 26.6998 72.9145 26.9985 72.1631 26.9985C71.4118 26.9985 70.6914 26.6997 70.1602 26.1685C69.6289 25.6372 69.3302 24.9168 69.3301 24.1655V21.9985H60.3535C59.5791 21.9988 58.8202 21.7774 58.168 21.3599C57.5159 20.9424 56.9978 20.3462 56.6738 19.6431C56.3499 18.9397 56.2342 18.1581 56.3408 17.3911C56.4474 16.6241 56.7709 15.9033 57.2744 15.3149H57.2754L68.0469 2.71631C68.5713 2.10278 69.2717 1.66504 70.0527 1.46143ZM68.4502 10.9673L64.5664 15.5083L63.8613 16.3335H69.3301V9.93799L68.4502 10.9673Z" fill="#ED1C24" stroke="white"/>
</svg>
