<svg width="80" height="80" viewBox="0 0 80 80" fill="none" xmlns="http://www.w3.org/2000/svg">
<g clip-path="url(#clip0_236_389)">
<mask id="path-1-inside-1_236_389" fill="white">
<path d="M41.0522 4.55252e-06C40.6788 -0.000758032 40.3101 0.0942931 39.9731 0.27816C39.6361 0.462027 39.3394 0.730027 39.1049 1.06242L38.6606 1.43941C30.0477 -1.61076 20.2215 0.628317 13.3812 8.16808C10.5159 11.2769 8.38441 15.1643 7.18495 19.4685C5.9855 23.7728 5.75705 28.3542 6.52084 32.7865L6.27119 33.0493L2.38167 37.3332C1.62927 38.1498 1.03009 39.133 0.620627 40.223C0.211165 41.3131 0 42.4871 0 43.6735C0 44.8599 0.211165 46.0339 0.620627 47.1239C1.03009 48.214 1.62927 49.1972 2.38167 50.0137C4.36887 52.2071 7.12499 53.0296 9.68638 52.4813C10.0009 54.1321 10.7349 55.7028 11.8983 56.9823C13.4311 58.673 15.4233 59.547 17.4305 59.6098C17.4854 61.8203 18.2793 64.0137 19.8121 65.7044C21.345 67.3952 23.3421 68.2748 25.3493 68.3319C25.3992 70.5425 26.1981 72.7415 27.731 74.4323C29.1984 76.0255 31.1208 76.9566 33.1421 77.0532C35.1634 77.1498 37.1469 76.4054 38.7255 74.9578L40.9074 77.3568C44.1029 80.8811 49.2856 80.8811 52.4811 77.3568C54.009 75.6775 54.8028 73.4955 54.8727 71.2907C56.8699 71.2222 58.8421 70.3483 60.365 68.6689C61.8879 66.9896 62.6867 64.802 62.7466 62.5971C64.7754 62.5131 66.7066 61.5802 68.174 59.9754C69.3873 58.6445 70.1362 56.9937 70.4258 55.2687C71.711 55.5261 73.0311 55.4348 74.2798 55.0023C75.5286 54.5697 76.6712 53.808 77.6157 52.7783C78.3689 51.9617 78.9687 50.9781 79.3787 49.8876C79.7886 48.797 80 47.6223 80 46.4352C80 45.2481 79.7886 44.0734 79.3787 42.9829C78.9687 41.8923 78.3689 40.9087 77.6157 40.0921L74.0208 36.1337L74.7547 32.9922C76.2341 26.5691 75.4826 19.7402 72.6577 13.9371C68.4836 5.33496 60.385 0.022852 51.6273 0.022852H45.486L44.6921 4.55252e-06H41.0522ZM53.2999 21.2256L65.308 34.4601L65.323 34.4716L74.0158 44.0562C74.2982 44.3625 74.523 44.7315 74.6767 45.1405C74.8304 45.5495 74.9096 45.99 74.9096 46.4352C74.9096 46.8804 74.8304 47.3209 74.6767 47.73C74.523 48.139 74.2982 48.5079 74.0158 48.8142C73.4319 49.4449 72.6593 49.7962 71.8563 49.7962C71.0533 49.7962 70.2807 49.4449 69.6969 48.8142L63.1011 41.5487C62.6177 41.018 61.9737 40.7218 61.3037 40.7218C60.6337 40.7218 59.9897 41.018 59.5062 41.5487L59.4363 41.6172C59.2022 41.8732 59.0158 42.1808 58.8885 42.5215C58.7612 42.8621 58.6956 43.2288 58.6956 43.5992C58.6956 43.9697 58.7612 44.3364 58.8885 44.677C59.0158 45.0177 59.2022 45.3253 59.4363 45.5813L64.5791 51.2475C65.7774 52.5613 65.7774 54.6975 64.5791 56.017C64.0488 56.5919 63.3601 56.9376 62.6312 56.995C61.9024 57.0523 61.1788 56.8176 60.5847 56.3312C60.0889 55.9213 59.4832 55.7232 58.873 55.7712C58.2628 55.8192 57.6865 56.1103 57.2444 56.5939C56.8123 57.0665 56.5514 57.7078 56.5135 58.3903C56.4756 59.0728 56.6634 59.7467 57.0397 60.2781C57.4879 60.9204 57.7089 61.7317 57.659 62.5516C57.609 63.3714 57.2918 64.1399 56.7701 64.7049C56.2322 65.2883 55.5316 65.6358 54.7916 65.686C54.0517 65.7361 53.3201 65.4858 52.7258 64.979C52.2324 64.5557 51.6242 64.3453 51.0085 64.385C50.3928 64.4247 49.8091 64.712 49.3605 65.1961C48.9228 65.668 48.6573 66.3119 48.6175 66.9985C48.5777 67.6851 48.7664 68.3635 49.1458 68.8974C49.6068 69.5472 49.8357 70.3725 49.7866 71.2074C49.7375 72.0424 49.414 72.8251 48.8812 73.3984C48.2902 74.0401 47.5065 74.3977 46.6918 74.3977C45.877 74.3977 45.0933 74.0401 44.5023 73.3984L42.3404 71.0165L43.1293 70.1483C43.8825 69.3317 44.4823 68.3481 44.8922 67.2576C45.3022 66.167 45.5136 64.9923 45.5136 63.8052C45.5136 62.6181 45.3022 61.4434 44.8922 60.3529C44.4823 59.2623 43.8825 58.2787 43.1293 57.4621C41.636 55.8279 39.663 54.8909 37.5971 54.8346C37.5354 52.522 36.6797 50.3303 35.2154 48.7343C33.7201 47.1009 31.7452 46.1658 29.6782 46.1125C29.6165 43.7999 28.7609 41.6081 27.2966 40.0121C26.3374 38.9677 25.1745 38.1996 23.9042 37.7715C22.634 37.3434 21.2928 37.2676 19.9919 37.5503C19.6619 35.8319 18.8918 34.2649 17.78 33.0493C16.9278 32.117 15.9116 31.4034 14.7992 30.9562C13.6867 30.509 12.5037 30.3385 11.3291 30.4561C10.9365 27.109 11.2432 23.7032 12.224 20.518C13.2047 17.3327 14.8316 14.4589 16.9711 12.1322C19.1336 9.76817 21.7265 7.98091 24.564 6.89856C27.4014 5.81622 30.4131 5.46561 33.383 5.87188L26.1182 11.9837C25.1887 12.7563 24.4057 13.7365 23.8166 14.8649C23.2274 15.9934 22.8442 17.2467 22.6902 18.5493C22.5362 19.8519 22.6146 21.1766 22.9206 22.4436C23.2266 23.7106 23.7538 24.8934 24.4706 25.9208C25.9208 27.9987 28.015 29.3576 30.3182 29.715C32.6214 30.0724 34.9565 29.4009 36.8381 27.84L44.7071 21.2313L53.2999 21.2256ZM29.0741 16.5818L42.0158 5.71194H44.6921C44.9369 5.70926 45.1817 5.71688 45.426 5.73479H51.6273C58.6374 5.73479 65.0334 9.99019 68.2938 16.7131C70.5007 21.2598 71.0799 26.5434 69.9265 31.5299L69.9116 31.587L56.131 16.3533C55.6639 15.8173 55.03 15.5153 54.3684 15.5136H43.8832C43.3533 15.5148 42.8374 15.7088 42.4103 16.0677L33.8823 23.2305C33.0442 23.9153 32.0093 24.2086 30.9887 24.0504C29.9681 23.8923 29.0387 23.2946 28.39 22.3794C28.0881 21.9539 27.8655 21.4622 27.7359 20.9346C27.6064 20.4069 27.5726 19.8546 27.6367 19.3114C27.7007 18.7683 27.8613 18.2459 28.1085 17.7765C28.3557 17.307 28.6843 16.9005 29.0741 16.5818ZM31.281 65.7616L31.3309 65.7044L35.2154 61.4205L35.2604 61.3748C35.8474 60.7659 36.6138 60.433 37.4062 60.4425C38.1985 60.452 38.9586 60.8033 39.5343 61.4262C39.8167 61.7325 40.0416 62.1015 40.1953 62.5105C40.349 62.9195 40.4282 63.36 40.4282 63.8052C40.4282 64.2504 40.349 64.691 40.1953 65.1C40.0416 65.509 39.8167 65.8779 39.5343 66.1842L35.6448 70.4682C35.0609 71.0988 34.2884 71.4502 33.4854 71.4502C32.6824 71.4502 31.9098 71.0988 31.3259 70.4682C31.0472 70.1664 30.8244 69.8037 30.6705 69.4015C30.5167 68.9993 30.4351 68.5659 30.4304 68.127C30.4257 67.688 30.4982 67.2525 30.6434 66.8461C30.7887 66.4398 31.0088 66.071 31.281 65.7616ZM31.6604 57.4107L31.6105 57.4621L27.726 61.7461L27.676 61.7975C27.0886 62.4039 26.323 62.7349 25.5318 62.7243C24.7406 62.7137 23.9819 62.3624 23.4071 61.7404C23.1278 61.4373 22.9048 61.0729 22.7514 60.6691C22.5979 60.2652 22.5172 59.8301 22.5139 59.3898C22.5107 58.9495 22.585 58.5129 22.7324 58.1062C22.8799 57.6994 23.0974 57.3308 23.3721 57.0223L23.4071 56.9823L27.2916 52.6984L27.3265 52.6584C27.9129 52.0447 28.6807 51.7077 29.4754 51.7151C30.2701 51.7225 31.0329 52.0738 31.6105 52.6984C31.8899 53.0002 32.1134 53.3633 32.2677 53.766C32.422 54.1687 32.5039 54.6028 32.5086 55.0424C32.5132 55.4821 32.4406 55.9183 32.2948 56.3251C32.1491 56.732 31.9334 57.1012 31.6604 57.4107ZM23.6966 48.7343L19.8071 53.0182L19.7722 53.0582C19.1858 53.6719 18.418 54.0089 17.6233 54.0015C16.8286 53.9941 16.0658 53.6428 15.4882 53.0182C15.2058 52.7119 14.9809 52.343 14.8273 51.9339C14.6736 51.5249 14.5943 51.0844 14.5943 50.6392C14.5943 50.194 14.6736 49.7535 14.8273 49.3445C14.9809 48.9354 15.2058 48.5665 15.4882 48.2602L19.3727 43.9762C19.9569 43.3439 20.7305 42.9916 21.5347 42.9916C22.3389 42.9916 23.1125 43.3439 23.6966 43.9762C23.9766 44.2794 24.2003 44.6441 24.3542 45.0485C24.5081 45.4528 24.5891 45.8886 24.5924 46.3296C24.5956 46.7706 24.5211 47.2079 24.3732 47.6152C24.2253 48.0225 24.0071 48.3914 23.7316 48.7L23.6966 48.7343ZM14.18 41.7714L10.2955 46.0554C9.71139 46.6877 8.93775 47.04 8.13356 47.04C7.32939 47.04 6.55574 46.6877 5.97161 46.0554C5.68845 45.749 5.4629 45.3797 5.30875 44.9701C5.1546 44.5606 5.0751 44.1194 5.0751 43.6735C5.0751 43.2276 5.1546 42.7864 5.30875 42.3768C5.4629 41.9673 5.68845 41.598 5.97161 41.2916L9.86113 37.0077C10.445 36.377 11.2176 36.0257 12.0206 36.0257C12.8236 36.0257 13.5962 36.377 14.18 37.0077C14.4632 37.3141 14.6888 37.6833 14.8429 38.0929C14.9971 38.5024 15.0766 38.9436 15.0766 39.3895C15.0766 39.8354 14.9971 40.2766 14.8429 40.6862C14.6888 41.0957 14.4632 41.465 14.18 41.7714Z"/>
</mask>
<path d="M41.0522 4.55252e-06C40.6788 -0.000758032 40.3101 0.0942931 39.9731 0.27816C39.6361 0.462027 39.3394 0.730027 39.1049 1.06242L38.6606 1.43941C30.0477 -1.61076 20.2215 0.628317 13.3812 8.16808C10.5159 11.2769 8.38441 15.1643 7.18495 19.4685C5.9855 23.7728 5.75705 28.3542 6.52084 32.7865L6.27119 33.0493L2.38167 37.3332C1.62927 38.1498 1.03009 39.133 0.620627 40.223C0.211165 41.3131 0 42.4871 0 43.6735C0 44.8599 0.211165 46.0339 0.620627 47.1239C1.03009 48.214 1.62927 49.1972 2.38167 50.0137C4.36887 52.2071 7.12499 53.0296 9.68638 52.4813C10.0009 54.1321 10.7349 55.7028 11.8983 56.9823C13.4311 58.673 15.4233 59.547 17.4305 59.6098C17.4854 61.8203 18.2793 64.0137 19.8121 65.7044C21.345 67.3952 23.3421 68.2748 25.3493 68.3319C25.3992 70.5425 26.1981 72.7415 27.731 74.4323C29.1984 76.0255 31.1208 76.9566 33.1421 77.0532C35.1634 77.1498 37.1469 76.4054 38.7255 74.9578L40.9074 77.3568C44.1029 80.8811 49.2856 80.8811 52.4811 77.3568C54.009 75.6775 54.8028 73.4955 54.8727 71.2907C56.8699 71.2222 58.8421 70.3483 60.365 68.6689C61.8879 66.9896 62.6867 64.802 62.7466 62.5971C64.7754 62.5131 66.7066 61.5802 68.174 59.9754C69.3873 58.6445 70.1362 56.9937 70.4258 55.2687C71.711 55.5261 73.0311 55.4348 74.2798 55.0023C75.5286 54.5697 76.6712 53.808 77.6157 52.7783C78.3689 51.9617 78.9687 50.9781 79.3787 49.8876C79.7886 48.797 80 47.6223 80 46.4352C80 45.2481 79.7886 44.0734 79.3787 42.9829C78.9687 41.8923 78.3689 40.9087 77.6157 40.0921L74.0208 36.1337L74.7547 32.9922C76.2341 26.5691 75.4826 19.7402 72.6577 13.9371C68.4836 5.33496 60.385 0.022852 51.6273 0.022852H45.486L44.6921 4.55252e-06H41.0522ZM53.2999 21.2256L65.308 34.4601L65.323 34.4716L74.0158 44.0562C74.2982 44.3625 74.523 44.7315 74.6767 45.1405C74.8304 45.5495 74.9096 45.99 74.9096 46.4352C74.9096 46.8804 74.8304 47.3209 74.6767 47.73C74.523 48.139 74.2982 48.5079 74.0158 48.8142C73.4319 49.4449 72.6593 49.7962 71.8563 49.7962C71.0533 49.7962 70.2807 49.4449 69.6969 48.8142L63.1011 41.5487C62.6177 41.018 61.9737 40.7218 61.3037 40.7218C60.6337 40.7218 59.9897 41.018 59.5062 41.5487L59.4363 41.6172C59.2022 41.8732 59.0158 42.1808 58.8885 42.5215C58.7612 42.8621 58.6956 43.2288 58.6956 43.5992C58.6956 43.9697 58.7612 44.3364 58.8885 44.677C59.0158 45.0177 59.2022 45.3253 59.4363 45.5813L64.5791 51.2475C65.7774 52.5613 65.7774 54.6975 64.5791 56.017C64.0488 56.5919 63.3601 56.9376 62.6312 56.995C61.9024 57.0523 61.1788 56.8176 60.5847 56.3312C60.0889 55.9213 59.4832 55.7232 58.873 55.7712C58.2628 55.8192 57.6865 56.1103 57.2444 56.5939C56.8123 57.0665 56.5514 57.7078 56.5135 58.3903C56.4756 59.0728 56.6634 59.7467 57.0397 60.2781C57.4879 60.9204 57.7089 61.7317 57.659 62.5516C57.609 63.3714 57.2918 64.1399 56.7701 64.7049C56.2322 65.2883 55.5316 65.6358 54.7916 65.686C54.0517 65.7361 53.3201 65.4858 52.7258 64.979C52.2324 64.5557 51.6242 64.3453 51.0085 64.385C50.3928 64.4247 49.8091 64.712 49.3605 65.1961C48.9228 65.668 48.6573 66.3119 48.6175 66.9985C48.5777 67.6851 48.7664 68.3635 49.1458 68.8974C49.6068 69.5472 49.8357 70.3725 49.7866 71.2074C49.7375 72.0424 49.414 72.8251 48.8812 73.3984C48.2902 74.0401 47.5065 74.3977 46.6918 74.3977C45.877 74.3977 45.0933 74.0401 44.5023 73.3984L42.3404 71.0165L43.1293 70.1483C43.8825 69.3317 44.4823 68.3481 44.8922 67.2576C45.3022 66.167 45.5136 64.9923 45.5136 63.8052C45.5136 62.6181 45.3022 61.4434 44.8922 60.3529C44.4823 59.2623 43.8825 58.2787 43.1293 57.4621C41.636 55.8279 39.663 54.8909 37.5971 54.8346C37.5354 52.522 36.6797 50.3303 35.2154 48.7343C33.7201 47.1009 31.7452 46.1658 29.6782 46.1125C29.6165 43.7999 28.7609 41.6081 27.2966 40.0121C26.3374 38.9677 25.1745 38.1996 23.9042 37.7715C22.634 37.3434 21.2928 37.2676 19.9919 37.5503C19.6619 35.8319 18.8918 34.2649 17.78 33.0493C16.9278 32.117 15.9116 31.4034 14.7992 30.9562C13.6867 30.509 12.5037 30.3385 11.3291 30.4561C10.9365 27.109 11.2432 23.7032 12.224 20.518C13.2047 17.3327 14.8316 14.4589 16.9711 12.1322C19.1336 9.76817 21.7265 7.98091 24.564 6.89856C27.4014 5.81622 30.4131 5.46561 33.383 5.87188L26.1182 11.9837C25.1887 12.7563 24.4057 13.7365 23.8166 14.8649C23.2274 15.9934 22.8442 17.2467 22.6902 18.5493C22.5362 19.8519 22.6146 21.1766 22.9206 22.4436C23.2266 23.7106 23.7538 24.8934 24.4706 25.9208C25.9208 27.9987 28.015 29.3576 30.3182 29.715C32.6214 30.0724 34.9565 29.4009 36.8381 27.84L44.7071 21.2313L53.2999 21.2256ZM29.0741 16.5818L42.0158 5.71194H44.6921C44.9369 5.70926 45.1817 5.71688 45.426 5.73479H51.6273C58.6374 5.73479 65.0334 9.99019 68.2938 16.7131C70.5007 21.2598 71.0799 26.5434 69.9265 31.5299L69.9116 31.587L56.131 16.3533C55.6639 15.8173 55.03 15.5153 54.3684 15.5136H43.8832C43.3533 15.5148 42.8374 15.7088 42.4103 16.0677L33.8823 23.2305C33.0442 23.9153 32.0093 24.2086 30.9887 24.0504C29.9681 23.8923 29.0387 23.2946 28.39 22.3794C28.0881 21.9539 27.8655 21.4622 27.7359 20.9346C27.6064 20.4069 27.5726 19.8546 27.6367 19.3114C27.7007 18.7683 27.8613 18.2459 28.1085 17.7765C28.3557 17.307 28.6843 16.9005 29.0741 16.5818ZM31.281 65.7616L31.3309 65.7044L35.2154 61.4205L35.2604 61.3748C35.8474 60.7659 36.6138 60.433 37.4062 60.4425C38.1985 60.452 38.9586 60.8033 39.5343 61.4262C39.8167 61.7325 40.0416 62.1015 40.1953 62.5105C40.349 62.9195 40.4282 63.36 40.4282 63.8052C40.4282 64.2504 40.349 64.691 40.1953 65.1C40.0416 65.509 39.8167 65.8779 39.5343 66.1842L35.6448 70.4682C35.0609 71.0988 34.2884 71.4502 33.4854 71.4502C32.6824 71.4502 31.9098 71.0988 31.3259 70.4682C31.0472 70.1664 30.8244 69.8037 30.6705 69.4015C30.5167 68.9993 30.4351 68.5659 30.4304 68.127C30.4257 67.688 30.4982 67.2525 30.6434 66.8461C30.7887 66.4398 31.0088 66.071 31.281 65.7616ZM31.6604 57.4107L31.6105 57.4621L27.726 61.7461L27.676 61.7975C27.0886 62.4039 26.323 62.7349 25.5318 62.7243C24.7406 62.7137 23.9819 62.3624 23.4071 61.7404C23.1278 61.4373 22.9048 61.0729 22.7514 60.6691C22.5979 60.2652 22.5172 59.8301 22.5139 59.3898C22.5107 58.9495 22.585 58.5129 22.7324 58.1062C22.8799 57.6994 23.0974 57.3308 23.3721 57.0223L23.4071 56.9823L27.2916 52.6984L27.3265 52.6584C27.9129 52.0447 28.6807 51.7077 29.4754 51.7151C30.2701 51.7225 31.0329 52.0738 31.6105 52.6984C31.8899 53.0002 32.1134 53.3633 32.2677 53.766C32.422 54.1687 32.5039 54.6028 32.5086 55.0424C32.5132 55.4821 32.4406 55.9183 32.2948 56.3251C32.1491 56.732 31.9334 57.1012 31.6604 57.4107ZM23.6966 48.7343L19.8071 53.0182L19.7722 53.0582C19.1858 53.6719 18.418 54.0089 17.6233 54.0015C16.8286 53.9941 16.0658 53.6428 15.4882 53.0182C15.2058 52.7119 14.9809 52.343 14.8273 51.9339C14.6736 51.5249 14.5943 51.0844 14.5943 50.6392C14.5943 50.194 14.6736 49.7535 14.8273 49.3445C14.9809 48.9354 15.2058 48.5665 15.4882 48.2602L19.3727 43.9762C19.9569 43.3439 20.7305 42.9916 21.5347 42.9916C22.3389 42.9916 23.1125 43.3439 23.6966 43.9762C23.9766 44.2794 24.2003 44.6441 24.3542 45.0485C24.5081 45.4528 24.5891 45.8886 24.5924 46.3296C24.5956 46.7706 24.5211 47.2079 24.3732 47.6152C24.2253 48.0225 24.0071 48.3914 23.7316 48.7L23.6966 48.7343ZM14.18 41.7714L10.2955 46.0554C9.71139 46.6877 8.93775 47.04 8.13356 47.04C7.32939 47.04 6.55574 46.6877 5.97161 46.0554C5.68845 45.749 5.4629 45.3797 5.30875 44.9701C5.1546 44.5606 5.0751 44.1194 5.0751 43.6735C5.0751 43.2276 5.1546 42.7864 5.30875 42.3768C5.4629 41.9673 5.68845 41.598 5.97161 41.2916L9.86113 37.0077C10.445 36.377 11.2176 36.0257 12.0206 36.0257C12.8236 36.0257 13.5962 36.377 14.18 37.0077C14.4632 37.3141 14.6888 37.6833 14.8429 38.0929C14.9971 38.5024 15.0766 38.9436 15.0766 39.3895C15.0766 39.8354 14.9971 40.2766 14.8429 40.6862C14.6888 41.0957 14.4632 41.465 14.18 41.7714Z" fill="#ED1C24" stroke="white" mask="url(#path-1-inside-1_236_389)"/>
</g>
<defs>
<clipPath id="clip0_236_389">
<rect width="80" height="80" fill="white"/>
</clipPath>
</defs>
</svg>
