<svg width="80" height="80" viewBox="0 0 80 80" fill="none" xmlns="http://www.w3.org/2000/svg">
<path d="M58.333 21.6673L76.6663 30.0007V73.334L53.333 63.334M53.333 63.334L26.6663 73.334M53.333 63.334V40.0007M26.6663 73.334L3.33301 63.334V20.0007L19.9997 26.6673M26.6663 73.334V40.0007M39.9997 54.244C39.9997 54.244 19.9997 38.334 19.9997 23.334C19.9997 10.834 29.9997 3.33398 39.9997 3.33398C49.9997 3.33398 59.9997 10.834 59.9997 23.334C59.9997 38.334 39.9997 54.244 39.9997 54.244ZM43.333 23.334C43.333 22.4499 42.9818 21.6021 42.3567 20.977C41.7316 20.3518 40.8837 20.0007 39.9997 20.0007C39.1156 20.0007 38.2678 20.3518 37.6426 20.977C37.0175 21.6021 36.6663 22.4499 36.6663 23.334C36.6663 24.218 37.0175 25.0659 37.6426 25.691C38.2678 26.3161 39.1156 26.6673 39.9997 26.6673C40.8837 26.6673 41.7316 26.3161 42.3567 25.691C42.9818 25.0659 43.333 24.218 43.333 23.334Z" stroke="#ED1C24" stroke-width="4"/>
</svg>
